{
  "accessors": [
    {
      "bufferView": 2,
      "componentType": 5126,
      "count": 65532,
      "max": [
        16.57713508605957,
        14.957209587097168,
        6.3300151824951172
      ],
      "min": [
        -11.319423675537109,
        -16.726974487304688,
        -0.55774688720703125
      ],
      "type": "VEC3"
    },
    {
      "bufferView": 2,
      "byteOffset": 786384,
      "componentType": 5126,
      "count": 65532,
      "max": [
        0.99978518486022949,
        0.99406027793884277,
        1
      ],
      "min": [
        -0.99956250190734863,
        -0.99999690055847168,
        -0.99985206127166748
      ],
      "type": "VEC3"
    },
    {
      "bufferView": 1,
      "componentType": 5126,
      "count": 65532,
      "max": [
        0.99974805116653442,
        0.50854682922363281
      ],
      "min": [
        0,
        0
      ],
      "type": "VEC2"
    },
    {
      "bufferView": 0,
      "componentType": 5125,
      "count": 324651,
      "max": [
        65531
      ],
      "min": [
        0
      ],
      "type": "SCALAR"
    },
    {
      "bufferView": 2,
      "byteOffset": 1572768,
      "componentType": 5126,
      "count": 65532,
      "max": [
        11.663286209106445,
        13.823148727416992,
        5.846771240234375
      ],
      "min": [
        -8.1143770217895508,
        -5.9772095680236816,
        2.6492969989776611
      ],
      "type": "VEC3"
    },
    {
      "bufferView": 2,
      "byteOffset": 2359152,
      "componentType": 5126,
      "count": 65532,
      "max": [
        0.96585333347320557,
        0.99370211362838745,
        1
      ],
      "min": [
        -0.99999511241912842,
        -0.99998891353607178,
        -0.99972963333129883
      ],
      "type": "VEC3"
    },
    {
      "bufferView": 1,
      "byteOffset": 524256,
      "componentType": 5126,
      "count": 65532,
      "max": [
        0.99980455636978149,
        0.49329936504364014
      ],
      "min": [
        0.0001220703125,
        0.061818838119506836
      ],
      "type": "VEC2"
    },
    {
      "bufferView": 0,
      "byteOffset": 1298604,
      "componentType": 5125,
      "count": 343101,
      "max": [
        65531
      ],
      "min": [
        0
      ],
      "type": "SCALAR"
    },
    {
      "bufferView": 2,
      "byteOffset": 3145536,
      "componentType": 5126,
      "count": 65532,
      "max": [
        13.930770874023438,
        15.515664100646973,
        8.2587184906005859
      ],
      "min": [
        -11.319423675537109,
        -15.528977394104004,
        -0.55774688720703125
      ],
      "type": "VEC3"
    },
    {
      "bufferView": 2,
      "byteOffset": 3931920,
      "componentType": 5126,
      "count": 65532,
      "max": [
        0.99996304512023926,
        0.99995303153991699,
        0.99999940395355225
      ],
      "min": [
        -0.99931919574737549,
        -0.99996423721313477,
        -0.99939632415771484
      ],
      "type": "VEC3"
    },
    {
      "bufferView": 1,
      "byteOffset": 1048512,
      "componentType": 5126,
      "count": 65532,
      "max": [
        0.9998134970664978,
        0.48950785398483276
      ],
      "min": [
        0,
        0
      ],
      "type": "VEC2"
    },
    {
      "bufferView": 0,
      "byteOffset": 2671008,
      "componentType": 5125,
      "count": 309834,
      "max": [
        65531
      ],
      "min": [
        0
      ],
      "type": "SCALAR"
    },
    {
      "bufferView": 2,
      "byteOffset": 4718304,
      "componentType": 5126,
      "count": 65532,
      "max": [
        13.104209899902344,
        18.252729415893555,
        7.2327461242675781
      ],
      "min": [
        -11.319423675537109,
        -13.116308212280273,
        -0.55774688720703125
      ],
      "type": "VEC3"
    },
    {
      "bufferView": 2,
      "byteOffset": 5504688,
      "componentType": 5126,
      "count": 65532,
      "max": [
        0.99968039989471436,
        0.99954569339752197,
        1
      ],
      "min": [
        -0.99827754497528076,
        -0.99999856948852539,
        -0.99991285800933838
      ],
      "type": "VEC3"
    },
    {
      "bufferView": 1,
      "byteOffset": 1572768,
      "componentType": 5126,
      "count": 65532,
      "max": [
        0.99980849027633667,
        0.48696357011795044
      ],
      "min": [
        0.0001220703125,
        0.20818418264389038
      ],
      "type": "VEC2"
    },
    {
      "bufferView": 0,
      "byteOffset": 3910344,
      "componentType": 5125,
      "count": 317835,
      "max": [
        65531
      ],
      "min": [
        0
      ],
      "type": "SCALAR"
    },
    {
      "bufferView": 2,
      "byteOffset": 6291072,
      "componentType": 5126,
      "count": 65532,
      "max": [
        11.634063720703125,
        18.252729415893555,
        6.3978934288024902
      ],
      "min": [
        -10.218961715698242,
        -8.3580436706542969,
        -0.24892282485961914
      ],
      "type": "VEC3"
    },
    {
      "bufferView": 2,
      "byteOffset": 7077456,
      "componentType": 5126,
      "count": 65532,
      "max": [
        0.99999320507049561,
        0.98677331209182739,
        0.99999916553497314
      ],
      "min": [
        -0.99571353197097778,
        -0.99999320507049561,
        -0.97989624738693237
      ],
      "type": "VEC3"
    },
    {
      "bufferView": 1,
      "byteOffset": 2097024,
      "componentType": 5126,
      "count": 65532,
      "max": [
        0.99979817867279053,
        0.49121296405792236
      ],
      "min": [
        0.0001220703125,
        0.22218817472457886
      ],
      "type": "VEC2"
    },
    {
      "bufferView": 0,
      "byteOffset": 5181684,
      "componentType": 5125,
      "count": 335172,
      "max": [
        65531
      ],
      "min": [
        0
      ],
      "type": "SCALAR"
    },
    {
      "bufferView": 2,
      "byteOffset": 7863840,
      "componentType": 5126,
      "count": 65532,
      "max": [
        15.057744979858398,
        18.252729415893555,
        8.6072769165039062
      ],
      "min": [
        -11.319423675537109,
        -13.749475479125977,
        -0.55774688720703125
      ],
      "type": "VEC3"
    },
    {
      "bufferView": 2,
      "byteOffset": 8650224,
      "componentType": 5126,
      "count": 65532,
      "max": [
        0.99999904632568359,
        0.99915182590484619,
        1
      ],
      "min": [
        -0.99999403953552246,
        -0.99999940395355225,
        -0.99991285800933838
      ],
      "type": "VEC3"
    },
    {
      "bufferView": 1,
      "byteOffset": 2621280,
      "componentType": 5126,
      "count": 65532,
      "max": [
        0.99976462125778198,
        0.5882568359375
      ],
      "min": [
        0,
        0
      ],
      "type": "VEC2"
    },
    {
      "bufferView": 0,
      "byteOffset": 6522372,
      "componentType": 5125,
      "count": 304998,
      "max": [
        65531
      ],
      "min": [
        0
      ],
      "type": "SCALAR"
    },
    {
      "bufferView": 2,
      "byteOffset": 9436608,
      "componentType": 5126,
      "count": 65532,
      "max": [
        16.427360534667969,
        18.678133010864258,
        8.5752859115600586
      ],
      "min": [
        -9.9548892974853516,
        -12.510503768920898,
        -0.2671818733215332
      ],
      "type": "VEC3"
    },
    {
      "bufferView": 2,
      "byteOffset": 10222992,
      "componentType": 5126,
      "count": 65532,
      "max": [
        0.99999701976776123,
        0.99991357326507568,
        0.99999988079071045
      ],
      "min": [
        -0.99998891353607178,
        -0.99999892711639404,
        -0.99957036972045898
      ],
      "type": "VEC3"
    },
    {
      "bufferView": 1,
      "byteOffset": 3145536,
      "componentType": 5126,
      "count": 65532,
      "max": [
        0.9998130202293396,
        0.8624267578125
      ],
      "min": [
        0,
        0
      ],
      "type": "VEC2"
    },
    {
      "bufferView": 0,
      "byteOffset": 7742364,
      "componentType": 5125,
      "count": 291975,
      "max": [
        65531
      ],
      "min": [
        0
      ],
      "type": "SCALAR"
    },
    {
      "bufferView": 2,
      "byteOffset": 11009376,
      "componentType": 5126,
      "count": 13390,
      "max": [
        7.4446721076965332,
        14.689435958862305,
        5.8931140899658203
      ],
      "min": [
        -9.6793327331542969,
        1.5929839611053467,
        2.6851890087127686
      ],
      "type": "VEC3"
    },
    {
      "bufferView": 2,
      "byteOffset": 11170056,
      "componentType": 5126,
      "count": 13390,
      "max": [
        0.99999701976776123,
        0.99556469917297363,
        0.99999856948852539
      ],
      "min": [
        -0.9821019172668457,
        -0.99995934963226318,
        -0.96478480100631714
      ],
      "type": "VEC3"
    },
    {
      "bufferView": 1,
      "byteOffset": 3669792,
      "componentType": 5126,
      "count": 13390,
      "max": [
        0.99917995929718018,
        0.8590087890625
      ],
      "min": [
        0,
        0
      ],
      "type": "VEC2"
    },
    {
      "bufferView": 0,
      "byteOffset": 8910264,
      "componentType": 5125,
      "count": 60717,
      "max": [
        13389
      ],
      "min": [
        0
      ],
      "type": "SCALAR"
    }
  ],
  "asset": {
    "extras": {
      "author": "matousekfoto (https://sketchfab.com/matousekfoto)",
      "license": "CC-BY-4.0 (http://creativecommons.org/licenses/by/4.0/)",
      "source": "https://sketchfab.com/3d-models/large-stairs-stairway-staircase-in-city-park-fa8b0845a0e64329886c9d6e6b07a4cc",
      "title": "Large stairs stairway staircase in city park"
    },
    "generator": "Sketchfab-8.9.0",
    "version": "2.0"
  },
  "bufferViews": [
    {
      "buffer": 0,
      "byteLength": 9153132,
      "byteOffset": 0,
      "name": "floatBufferViews",
      "target": 34963
    },
    {
      "buffer": 0,
      "byteLength": 3776912,
      "byteOffset": 9153132,
      "byteStride": 8,
      "name": "floatBufferViews",
      "target": 34962
    },
    {
      "buffer": 0,
      "byteLength": 11330736,
      "byteOffset": 12930044,
      "byteStride": 12,
      "name": "floatBufferViews",
      "target": 34962
    }
  ],
  "buffers": [
    {
      "byteLength": 24260780,
      "uri": "scene.bin"
    }
  ],
  "extensionsRequired": [
    "KHR_materials_pbrSpecularGlossiness"
  ],
  "extensionsUsed": [
    "KHR_materials_pbrSpecularGlossiness"
  ],
  "images": [
    {
      "uri": "textures/Material_u1_v1_diffuse.jpeg"
    }
  ],
  "materials": [
    {
      "doubleSided": true,
      "extensions": {
        "KHR_materials_pbrSpecularGlossiness": {
          "diffuseFactor": [
            1,
            1,
            1,
            1
          ],
          "diffuseTexture": {
            "index": 0,
            "texCoord": 0
          },
          "glossinessFactor": 0.084089641525371447,
          "specularFactor": [
            0.045807172667305426,
            0.045807172667305426,
            0.045807172667305426
          ]
        }
      },
      "name": "Material_u1_v1"
    }
  ],
  "meshes": [
    {
      "name": "meshNode_Material_u1_v1_0",
      "primitives": [
        {
          "attributes": {
            "NORMAL": 1,
            "POSITION": 0,
            "TEXCOORD_0": 2
          },
          "indices": 3,
          "material": 0,
          "mode": 4
        }
      ]
    },
    {
      "name": "meshNode_Material_u1_v1_0",
      "primitives": [
        {
          "attributes": {
            "NORMAL": 5,
            "POSITION": 4,
            "TEXCOORD_0": 6
          },
          "indices": 7,
          "material": 0,
          "mode": 4
        }
      ]
    },
    {
      "name": "meshNode_Material_u1_v1_0",
      "primitives": [
        {
          "attributes": {
            "NORMAL": 9,
            "POSITION": 8,
            "TEXCOORD_0": 10
          },
          "indices": 11,
          "material": 0,
          "mode": 4
        }
      ]
    },
    {
      "name": "meshNode_Material_u1_v1_0",
      "primitives": [
        {
          "attributes": {
            "NORMAL": 13,
            "POSITION": 12,
            "TEXCOORD_0": 14
          },
          "indices": 15,
          "material": 0,
          "mode": 4
        }
      ]
    },
    {
      "name": "meshNode_Material_u1_v1_0",
      "primitives": [
        {
          "attributes": {
            "NORMAL": 17,
            "POSITION": 16,
            "TEXCOORD_0": 18
          },
          "indices": 19,
          "material": 0,
          "mode": 4
        }
      ]
    },
    {
      "name": "meshNode_Material_u1_v1_0",
      "primitives": [
        {
          "attributes": {
            "NORMAL": 21,
            "POSITION": 20,
            "TEXCOORD_0": 22
          },
          "indices": 23,
          "material": 0,
          "mode": 4
        }
      ]
    },
    {
      "name": "meshNode_Material_u1_v1_0",
      "primitives": [
        {
          "attributes": {
            "NORMAL": 25,
            "POSITION": 24,
            "TEXCOORD_0": 26
          },
          "indices": 27,
          "material": 0,
          "mode": 4
        }
      ]
    },
    {
      "name": "meshNode_Material_u1_v1_0",
      "primitives": [
        {
          "attributes": {
            "NORMAL": 29,
            "POSITION": 28,
            "TEXCOORD_0": 30
          },
          "indices": 31,
          "material": 0,
          "mode": 4
        }
      ]
    }
  ],
  "nodes": [
    {
      "children": [
        1
      ],
      "name": "RootNode (gltf orientation matrix)",
      "rotation": [
        -0.70710678118654746,
        -0,
        -0,
        0.70710678118654757
      ]
    },
    {
      "children": [
        2
      ],
      "matrix": [
        0.99932456016540527,
        -0.0009136178414337337,
        0.036737475544214249,
        0,
        -1.6263032587282567e-19,
        0.99969089031219482,
        0.024861138314008713,
        0,
        -0.036748833954334259,
        -0.024844346567988396,
        0.99901562929153442,
        0,
        -163.87796020507812,
        10.00717830657959,
        -806.91357421875,
        1
      ],
      "name": "RootNode (model correction matrix)"
    },
    {
      "children": [
        3
      ],
      "matrix": [
        1,
        0,
        0,
        0,
        0,
        0,
        1,
        0,
        0,
        -1,
        0,
        0,
        0,
        0,
        0,
        1
      ],
      "name": "letnak-re.fbx"
    },
    {
      "children": [
        4
      ],
      "name": "RootNode"
    },
    {
      "children": [
        5,
        6,
        7,
        8,
        9,
        10,
        11,
        12
      ],
      "matrix": [
        1.9470718837233392e-05,
        5.5511151231257827e-15,
        99.999999999998124,
        0,
        99.999999999998025,
        -4.3711390063094768e-06,
        -1.9470718864988967e-05,
        0,
        4.3711389952072466e-06,
        99.999999999999929,
        -8.8817841970012523e-13,
        0,
        0,
        0,
        0,
        1
      ],
      "name": "meshNode"
    },
    {
      "mesh": 0,
      "name": "meshNode_Material_u1_v1_0"
    },
    {
      "mesh": 1,
      "name": "meshNode_Material_u1_v1_0"
    },
    {
      "mesh": 2,
      "name": "meshNode_Material_u1_v1_0"
    },
    {
      "mesh": 3,
      "name": "meshNode_Material_u1_v1_0"
    },
    {
      "mesh": 4,
      "name": "meshNode_Material_u1_v1_0"
    },
    {
      "mesh": 5,
      "name": "meshNode_Material_u1_v1_0"
    },
    {
      "mesh": 6,
      "name": "meshNode_Material_u1_v1_0"
    },
    {
      "mesh": 7,
      "name": "meshNode_Material_u1_v1_0"
    }
  ],
  "samplers": [
    {
      "magFilter": 9729,
      "minFilter": 9987,
      "wrapS": 10497,
      "wrapT": 10497
    }
  ],
  "scene": 0,
  "scenes": [
    {
      "name": "OSG_Scene",
      "nodes": [
        0
      ]
    }
  ],
  "textures": [
    {
      "sampler": 0,
      "source": 0
    }
  ]
}

